<?xml version="1.0" encoding="UTF-8" standalone="no"?>
<!-- Created with Inkscape (http://www.inkscape.org/) -->

<svg
   width="54.854767"
   height="53.090366"
   viewBox="0 0 14.513652 14.046822"
   version="1.1"
   id="svg7954"
   inkscape:version="1.2.2 (b0a8486541, 2022-12-01)"
   sodipodi:docname="paw.svg"
   xmlns:inkscape="http://www.inkscape.org/namespaces/inkscape"
   xmlns:sodipodi="http://sodipodi.sourceforge.net/DTD/sodipodi-0.dtd"
   xmlns="http://www.w3.org/2000/svg"
   xmlns:svg="http://www.w3.org/2000/svg">
  <sodipodi:namedview
     id="namedview7956"
     pagecolor="#ffffff"
     bordercolor="#000000"
     borderopacity="0.25"
     inkscape:showpageshadow="2"
     inkscape:pageopacity="0.0"
     inkscape:pagecheckerboard="0"
     inkscape:deskcolor="#d1d1d1"
     inkscape:document-units="px"
     showgrid="false"
     showguides="true"
     inkscape:zoom="5.153729"
     inkscape:cx="29.687242"
     inkscape:cy="18.724306"
     inkscape:window-width="1920"
     inkscape:window-height="1043"
     inkscape:window-x="0"
     inkscape:window-y="0"
     inkscape:window-maximized="1"
     inkscape:current-layer="layer1" />
  <defs
     id="defs7951" />
  <g
     inkscape:label="Layer 1"
     inkscape:groupmode="layer"
     id="layer1"
     transform="translate(-0.65932857,-0.70507059)">
    <path
       style="color:#000000;fill:#594020;fill-opacity:1;stroke:none;stroke-width:1;-inkscape-stroke:none"
       d="M 8.5722757,0.7050804 C 8.3529122,0.70562868 8.1303747,0.72901791 7.9127422,0.77583496 7.0917908,0.95243753 6.3996137,1.5664788 5.9695187,2.2616807 5.7540345,2.2138391 5.5861391,2.0688985 5.3504161,2.0721596 4.7886918,2.0799309 4.2313615,2.2571716 3.7584385,2.5421721 2.8854414,3.0682719 2.3678222,4.0190189 2.2700658,4.8694918 2.2246407,5.2646867 2.4321905,5.5764127 2.5075989,5.9358642 2.1749383,6.1113329 1.7662616,6.1249408 1.519562,6.390715 0.87562518,7.0844392 0.5577104,8.0997882 0.68819592,8.9808374 0.81868145,9.8618865 1.2839657,10.569431 1.8607001,11.103474 c 0.6866524,0.635824 1.503194,0.886131 2.2944693,0.879378 0.06538,0.271886 0.00414,0.536749 0.1339285,0.808624 0.8618919,1.805416 3.0150082,2.374675 4.8997533,1.662732 0.6840802,-0.258262 1.1603138,-0.612741 1.5540738,-1.056264 0.73068,0.02311 1.472839,-0.10174 2.193392,-0.611522 1.381827,-0.977628 2.095474,-2.622119 1.607138,-4.3210823 C 14.463599,8.1875158 14.268217,8.0549156 14.14167,7.8336026 14.679086,7.3008525 15.101677,6.6141408 15.162558,5.7236005 15.216154,4.939606 15.070045,4.1042141 14.561144,3.3735381 14.052243,2.6428623 13.125067,2.1213962 12.180758,2.0569979 12.080468,2.0501536 11.995964,2.049273 11.925536,2.0494179 11.652499,2.0499603 11.460845,2.3095236 11.190195,2.3855021 10.648157,1.4800447 9.8507216,0.70188516 8.5722757,0.7050804 Z"
       id="path9071"
       sodipodi:nodetypes="sscssscssscccccscsssscs"
       inkscape:label="outline" />
    <g
       id="g9082"
       style="fill:#b48140;fill-opacity:1;stroke:none;stroke-width:0.772918;stroke-opacity:1"
       transform="matrix(1.2937977,0,0,1.2937977,-0.19370917,-0.20714806)">
      <path
         id="path8911"
         style="fill:#b48140;fill-opacity:1;stroke:none;stroke-width:2.04501;stroke-dasharray:none;stroke-opacity:1"
         d="M 6.304191,5.7189841 C 5.2293644,6.1407753 4.0345451,8.1702121 4.6581204,9.4764198 4.956501,10.101441 5.8621465,10.442037 6.7841509,10.093759 7.1868331,9.9417345 7.6601567,9.471116 7.8073161,9.0951571 8.2947398,9.2824501 8.9520162,9.2700613 9.3851349,8.9636348 9.9898783,8.5357855 10.307872,7.7271958 10.118847,7.0695608 9.8060237,5.981221 7.3640319,5.3030735 6.304191,5.7189841 Z"
         sodipodi:nodetypes="ssscass" />
      <path
         style="fill:#b48140;fill-opacity:1;stroke:none;stroke-width:2.04501;stroke-dasharray:none;stroke-opacity:1"
         d="M 5.0698646,5.4628216 C 4.5413582,5.7856616 3.7661366,5.564903 3.4331171,5.0136406 3.1000975,4.4623783 3.0904548,3.647879 3.7377869,3.2577732 4.3851191,2.8676672 5.0120471,3.1713409 5.4065495,3.8243785 5.801052,4.477416 5.592464,5.143594 5.0698646,5.4628216 Z"
         id="path9009"
         sodipodi:nodetypes="asssa" />
      <path
         style="fill:#b48140;fill-opacity:1;stroke:none;stroke-width:2.04501;stroke-dasharray:none;stroke-opacity:1"
         d="M 4.1840556,7.750953 C 3.8306432,8.1316906 3.0309576,8.2754749 2.4867722,7.7715719 1.9425869,7.2676689 1.7690758,6.5646847 2.2931862,6.0000515 2.8172965,5.4354181 3.4738086,5.5464049 4.0537609,6.0834274 4.6337134,6.6204501 4.6005403,7.3022663 4.1840556,7.750953 Z"
         id="path9011"
         sodipodi:nodetypes="sssss" />
      <path
         style="fill:#b48140;fill-opacity:1;stroke:none;stroke-width:2.04501;stroke-dasharray:none;stroke-opacity:1"
         d="M 7.0865319,4.5710572 C 7.6929315,4.4444127 8.1060123,3.7530213 7.9702862,3.1236201 7.8345602,2.4942187 7.2827162,1.8944609 6.5436277,2.0534533 5.8045391,2.2124455 5.5563445,2.8627155 5.7171287,3.6083182 5.8779127,4.353921 6.4869128,4.6962895 7.0865319,4.5710572 Z"
         id="path9017"
         sodipodi:nodetypes="asssa" />
      <path
         style="fill:#b48140;fill-opacity:1;stroke:none;stroke-width:2.04501;stroke-dasharray:none;stroke-opacity:1"
         d="M 9.2990641,5.6402122 C 9.8176784,5.6755797 10.498705,5.2329211 10.549256,4.4934701 10.599807,3.7540191 10.243815,3.1233073 9.4747109,3.0708574 8.7056068,3.0184076 8.3036555,3.5486033 8.249783,4.3366553 8.1959097,5.1247073 8.687895,5.5985324 9.2990641,5.6402122 Z"
         id="path9019"
         sodipodi:nodetypes="sssss" />
    </g>
  </g>
</svg>
